<svg width="40" height="40" viewBox="0 0 40 40" fill="none" xmlns="http://www.w3.org/2000/svg">
<path fill-rule="evenodd" clip-rule="evenodd" d="M19.983 3.33325C10.783 3.33325 3.33301 10.7999 3.33301 19.9999C3.33301 29.1999 10.783 36.6666 19.983 36.6666C29.1997 36.6666 36.6663 29.1999 36.6663 19.9999C36.6663 10.7999 29.1997 3.33325 19.983 3.33325ZM19.9997 33.3333C12.633 33.3333 6.66636 27.3666 6.66636 19.9999C6.66636 12.6333 12.633 6.66659 19.9997 6.66659C27.3664 6.66659 33.333 12.6333 33.333 19.9999C33.333 27.3666 27.3664 33.3333 19.9997 33.3333ZM19.533 11.6666H19.633C20.2997 11.6666 20.833 12.1999 20.833 12.8666V20.4333L27.283 24.2666C27.8663 24.5999 28.0497 25.3499 27.6997 25.9166C27.3663 26.4833 26.633 26.6499 26.0663 26.3166L19.1497 22.1666C18.633 21.8666 18.333 21.3166 18.333 20.7333V12.8666C18.333 12.1999 18.8663 11.6666 19.533 11.6666Z" fill="#B8BEC9" fill-opacity="0.80"/>
</svg>
